G04*
G04 #@! TF.GenerationSoftware,Altium Limited,Altium Designer,21.4.1 (30)*
G04*
G04 Layer_Color=2752767*
%FSLAX25Y25*%
%MOIN*%
G70*
G04*
G04 #@! TF.SameCoordinates,34362008-6013-40ED-8967-B93A8513BE85*
G04*
G04*
G04 #@! TF.FilePolarity,Positive*
G04*
G01*
G75*
%ADD47C,0.00200*%
%ADD48C,0.00267*%
D47*
X494279Y111200D02*
Y112800D01*
X495879D01*
Y111200D01*
X494279D01*
X504121Y111200D02*
Y112800D01*
X505721D01*
Y111200D01*
X504121D01*
X620542D02*
Y112800D01*
X622143D01*
Y111200D01*
X620542D01*
X610700Y111200D02*
Y112800D01*
X612300D01*
Y111200D01*
X610700D01*
X515000Y136700D02*
X514200Y138300D01*
X515800D01*
X515000Y136700D01*
X566000Y151200D02*
X565200Y152800D01*
X566800D01*
X566000Y151200D01*
X541000Y154700D02*
X540200Y156300D01*
X541800D01*
X541000Y154700D01*
X626000Y140700D02*
X625200Y142300D01*
X626800D01*
X626000Y140700D01*
X551500Y145700D02*
X550700Y147300D01*
X552300D01*
X551500Y145700D01*
X597000Y104200D02*
X597400Y104600D01*
X597800D01*
X597400Y105000D01*
X597800Y105400D01*
X597400D01*
X597000Y105800D01*
X596600Y105400D01*
X596200D01*
X596600Y105000D01*
X596200Y104600D01*
X596600D01*
X597000Y104200D01*
X519000Y134200D02*
X518200Y135800D01*
X519800D01*
X519000Y134200D01*
X515000Y132700D02*
X514200Y134300D01*
X515800D01*
X515000Y132700D01*
X626000Y126200D02*
X625200Y127800D01*
X626800D01*
X626000Y126200D01*
X622000Y125200D02*
X621200Y126800D01*
X622800D01*
X622000Y125200D01*
X623000Y129200D02*
X622200Y130800D01*
X623800D01*
X623000Y129200D01*
X628500Y110200D02*
X627700Y111800D01*
X629300D01*
X628500Y110200D01*
X595500Y141200D02*
X594700Y142800D01*
X596300D01*
X595500Y141200D01*
X502000Y140700D02*
X501200Y142300D01*
X502800D01*
X502000Y140700D01*
X504500Y143700D02*
X503700Y145300D01*
X505300D01*
X504500Y143700D01*
X539500Y133200D02*
X538700Y134800D01*
X540300D01*
X539500Y133200D01*
X527800Y152055D02*
X527000Y153655D01*
X528600D01*
X527800Y152055D01*
X488500Y142700D02*
X487700Y144300D01*
X489300D01*
X488500Y142700D01*
X493530Y132670D02*
X492730Y134270D01*
X494330D01*
X493530Y132670D01*
X561000Y117700D02*
X560200Y119300D01*
X561800D01*
X561000Y117700D01*
X535000D02*
X534200Y119300D01*
X535800D01*
X535000Y117700D01*
X621000Y158200D02*
X620200Y159800D01*
X621800D01*
X621000Y158200D01*
X624000Y161200D02*
X623200Y162800D01*
X624800D01*
X624000Y161200D01*
X629500D02*
X628700Y162800D01*
X630300D01*
X629500Y161200D01*
X651500D02*
X650700Y162800D01*
X652300D01*
X651500Y161200D01*
X643000Y158200D02*
X642200Y159800D01*
X643800D01*
X643000Y158200D01*
X648500D02*
X647700Y159800D01*
X649300D01*
X648500Y158200D01*
X626500D02*
X625700Y159800D01*
X627300D01*
X626500Y158200D01*
X637500D02*
X636700Y159800D01*
X638300D01*
X637500Y158200D01*
X646000Y161200D02*
X645200Y162800D01*
X646800D01*
X646000Y161200D01*
X635000D02*
X634200Y162800D01*
X635800D01*
X635000Y161200D01*
X632000Y158200D02*
X631200Y159800D01*
X632800D01*
X632000Y158200D01*
X640500Y161200D02*
X639700Y162800D01*
X641300D01*
X640500Y161200D01*
X588500Y133200D02*
X587700Y134800D01*
X589300D01*
X588500Y133200D01*
X604000Y160700D02*
X603200Y162300D01*
X604800D01*
X604000Y160700D01*
X591500Y141200D02*
X590700Y142800D01*
X592300D01*
X591500Y141200D01*
X596000Y157200D02*
X595200Y158800D01*
X596800D01*
X596000Y157200D01*
X637416Y143709D02*
X636616Y145309D01*
X638216D01*
X637416Y143709D01*
X581457Y124357D02*
X580656Y125958D01*
X582257D01*
X581457Y124357D01*
X583324Y141620D02*
X582524Y143220D01*
X584124D01*
X583324Y141620D01*
X571000Y136700D02*
X570200Y138300D01*
X571800D01*
X571000Y136700D01*
X566000Y133200D02*
X565200Y134800D01*
X566800D01*
X566000Y133200D01*
X572500Y140200D02*
X571700Y141800D01*
X573300D01*
X572500Y140200D01*
X535500Y133200D02*
X534700Y134800D01*
X536300D01*
X535500Y133200D01*
D48*
X660615Y147732D02*
G03*
X660615Y147732I-800J0D01*
G01*
Y137732D02*
G03*
X660615Y137732I-800J0D01*
G01*
Y127732D02*
G03*
X660615Y127732I-800J0D01*
G01*
Y117732D02*
G03*
X660615Y117732I-800J0D01*
G01*
M02*
