G04*
G04 #@! TF.GenerationSoftware,Altium Limited,Altium Designer,21.4.1 (30)*
G04*
G04 Layer_Color=8388736*
%FSLAX25Y25*%
%MOIN*%
G70*
G04*
G04 #@! TF.SameCoordinates,34362008-6013-40ED-8967-B93A8513BE85*
G04*
G04*
G04 #@! TF.FilePolarity,Positive*
G04*
G01*
G75*
%ADD12C,0.00197*%
G36*
X504626Y110892D02*
X502556D01*
X502446Y110900D01*
X502322Y110907D01*
X502191Y110914D01*
X502067Y110929D01*
X501958Y110943D01*
X501943D01*
X501892Y110958D01*
X501827Y110972D01*
X501739Y110994D01*
X501644Y111031D01*
X501542Y111075D01*
X501433Y111126D01*
X501338Y111184D01*
X501324Y111191D01*
X501294Y111213D01*
X501251Y111257D01*
X501192Y111308D01*
X501127Y111373D01*
X501061Y111461D01*
X500988Y111556D01*
X500930Y111665D01*
X500923Y111680D01*
X500908Y111716D01*
X500879Y111782D01*
X500850Y111869D01*
X500828Y111971D01*
X500799Y112088D01*
X500784Y112219D01*
X500777Y112358D01*
Y112365D01*
Y112387D01*
Y112416D01*
X500784Y112467D01*
X500791Y112518D01*
X500799Y112584D01*
X500813Y112656D01*
X500828Y112737D01*
X500879Y112904D01*
X500908Y112992D01*
X500952Y113087D01*
X501003Y113181D01*
X501054Y113269D01*
X501120Y113356D01*
X501192Y113444D01*
X501200Y113451D01*
X501214Y113466D01*
X501236Y113488D01*
X501273Y113509D01*
X501316Y113546D01*
X501375Y113582D01*
X501447Y113626D01*
X501528Y113663D01*
X501622Y113706D01*
X501732Y113750D01*
X501849Y113786D01*
X501987Y113816D01*
X502133Y113845D01*
X502293Y113867D01*
X502475Y113881D01*
X502665Y113889D01*
X503955D01*
Y115937D01*
X504626D01*
Y110892D01*
D02*
G37*
G36*
X498466Y111993D02*
X498473Y112000D01*
X498510Y112030D01*
X498553Y112073D01*
X498626Y112124D01*
X498706Y112190D01*
X498808Y112263D01*
X498925Y112343D01*
X499056Y112423D01*
X499064D01*
X499071Y112431D01*
X499115Y112460D01*
X499188Y112496D01*
X499275Y112540D01*
X499377Y112591D01*
X499486Y112642D01*
X499596Y112693D01*
X499705Y112737D01*
Y112139D01*
X499698D01*
X499683Y112124D01*
X499654Y112117D01*
X499618Y112095D01*
X499574Y112073D01*
X499523Y112044D01*
X499399Y111971D01*
X499253Y111891D01*
X499107Y111789D01*
X498954Y111672D01*
X498801Y111548D01*
X498794Y111541D01*
X498787Y111534D01*
X498765Y111512D01*
X498736Y111490D01*
X498670Y111417D01*
X498583Y111330D01*
X498495Y111228D01*
X498400Y111111D01*
X498320Y110994D01*
X498247Y110871D01*
X497846D01*
Y115937D01*
X498466D01*
Y111993D01*
D02*
G37*
G36*
X615106Y115930D02*
X615164Y115922D01*
X615230Y115915D01*
X615303Y115901D01*
X615383Y115886D01*
X615558Y115842D01*
X615740Y115769D01*
X615835Y115726D01*
X615922Y115675D01*
X616010Y115609D01*
X616097Y115543D01*
X616105Y115536D01*
X616119Y115522D01*
X616141Y115500D01*
X616163Y115471D01*
X616199Y115434D01*
X616236Y115383D01*
X616280Y115332D01*
X616323Y115266D01*
X616367Y115193D01*
X616411Y115120D01*
X616491Y114946D01*
X616557Y114742D01*
X616578Y114632D01*
X616593Y114515D01*
X615973Y114435D01*
Y114443D01*
X615966Y114457D01*
X615959Y114486D01*
X615951Y114523D01*
X615944Y114567D01*
X615930Y114618D01*
X615893Y114727D01*
X615842Y114858D01*
X615776Y114982D01*
X615704Y115099D01*
X615616Y115201D01*
X615602Y115208D01*
X615572Y115237D01*
X615514Y115274D01*
X615441Y115310D01*
X615354Y115354D01*
X615244Y115390D01*
X615120Y115419D01*
X614989Y115427D01*
X614946D01*
X614916Y115419D01*
X614836Y115412D01*
X614734Y115390D01*
X614617Y115354D01*
X614494Y115303D01*
X614370Y115230D01*
X614253Y115128D01*
X614238Y115113D01*
X614202Y115069D01*
X614158Y115004D01*
X614100Y114916D01*
X614042Y114807D01*
X613998Y114683D01*
X613961Y114537D01*
X613947Y114377D01*
Y114370D01*
Y114355D01*
Y114333D01*
X613954Y114304D01*
X613961Y114224D01*
X613983Y114129D01*
X614012Y114013D01*
X614063Y113896D01*
X614136Y113779D01*
X614231Y113670D01*
X614246Y113655D01*
X614282Y113626D01*
X614340Y113582D01*
X614421Y113531D01*
X614523Y113480D01*
X614647Y113437D01*
X614785Y113407D01*
X614938Y113393D01*
X615004D01*
X615055Y113400D01*
X615120Y113407D01*
X615193Y113422D01*
X615281Y113437D01*
X615376Y113458D01*
X615303Y112912D01*
X615266D01*
X615237Y112919D01*
X615142D01*
X615062Y112904D01*
X614967Y112890D01*
X614858Y112868D01*
X614734Y112831D01*
X614617Y112780D01*
X614494Y112715D01*
X614486D01*
X614479Y112707D01*
X614442Y112678D01*
X614391Y112627D01*
X614333Y112562D01*
X614275Y112467D01*
X614224Y112358D01*
X614187Y112234D01*
X614173Y112161D01*
Y112081D01*
Y112073D01*
Y112066D01*
Y112022D01*
X614187Y111964D01*
X614202Y111884D01*
X614231Y111796D01*
X614267Y111702D01*
X614326Y111607D01*
X614406Y111519D01*
X614413Y111512D01*
X614450Y111483D01*
X614501Y111446D01*
X614566Y111403D01*
X614654Y111366D01*
X614756Y111330D01*
X614873Y111301D01*
X615004Y111293D01*
X615062D01*
X615128Y111308D01*
X615215Y111322D01*
X615310Y111352D01*
X615405Y111388D01*
X615507Y111446D01*
X615602Y111519D01*
X615609Y111527D01*
X615638Y111563D01*
X615682Y111614D01*
X615733Y111687D01*
X615784Y111782D01*
X615835Y111898D01*
X615879Y112037D01*
X615908Y112197D01*
X616527Y112088D01*
Y112081D01*
X616520Y112059D01*
X616513Y112030D01*
X616505Y111986D01*
X616491Y111935D01*
X616469Y111876D01*
X616425Y111738D01*
X616353Y111578D01*
X616265Y111417D01*
X616156Y111264D01*
X616017Y111126D01*
X616010Y111118D01*
X615995Y111111D01*
X615973Y111097D01*
X615944Y111075D01*
X615908Y111045D01*
X615857Y111016D01*
X615806Y110987D01*
X615740Y110951D01*
X615594Y110892D01*
X615427Y110834D01*
X615230Y110798D01*
X615128Y110783D01*
X614946D01*
X614865Y110790D01*
X614771Y110805D01*
X614654Y110827D01*
X614523Y110863D01*
X614391Y110907D01*
X614260Y110965D01*
X614253D01*
X614246Y110972D01*
X614202Y110994D01*
X614136Y111038D01*
X614063Y111089D01*
X613976Y111162D01*
X613888Y111242D01*
X613801Y111337D01*
X613728Y111446D01*
X613721Y111461D01*
X613699Y111497D01*
X613670Y111563D01*
X613633Y111643D01*
X613597Y111738D01*
X613568Y111847D01*
X613546Y111971D01*
X613539Y112095D01*
Y112110D01*
Y112153D01*
X613546Y112212D01*
X613560Y112292D01*
X613582Y112387D01*
X613619Y112489D01*
X613662Y112591D01*
X613721Y112693D01*
X613728Y112707D01*
X613750Y112737D01*
X613794Y112788D01*
X613852Y112846D01*
X613925Y112912D01*
X614012Y112985D01*
X614114Y113050D01*
X614238Y113116D01*
X614231D01*
X614217Y113123D01*
X614195Y113130D01*
X614165Y113138D01*
X614085Y113167D01*
X613983Y113211D01*
X613867Y113269D01*
X613750Y113342D01*
X613641Y113437D01*
X613539Y113546D01*
X613531Y113560D01*
X613502Y113604D01*
X613458Y113677D01*
X613415Y113772D01*
X613371Y113889D01*
X613327Y114027D01*
X613298Y114187D01*
X613291Y114362D01*
Y114370D01*
Y114392D01*
Y114428D01*
X613298Y114472D01*
X613305Y114530D01*
X613320Y114596D01*
X613334Y114669D01*
X613349Y114749D01*
X613407Y114924D01*
X613451Y115018D01*
X613495Y115106D01*
X613553Y115201D01*
X613619Y115296D01*
X613692Y115390D01*
X613779Y115478D01*
X613786Y115485D01*
X613801Y115500D01*
X613830Y115522D01*
X613867Y115551D01*
X613910Y115587D01*
X613969Y115624D01*
X614034Y115667D01*
X614114Y115704D01*
X614195Y115747D01*
X614289Y115791D01*
X614384Y115828D01*
X614494Y115864D01*
X614610Y115893D01*
X614734Y115915D01*
X614858Y115930D01*
X614996Y115937D01*
X615062D01*
X615106Y115930D01*
D02*
G37*
G36*
X621047Y110805D02*
X618977D01*
X618867Y110812D01*
X618744Y110819D01*
X618612Y110827D01*
X618488Y110841D01*
X618379Y110856D01*
X618364D01*
X618314Y110871D01*
X618248Y110885D01*
X618160Y110907D01*
X618066Y110943D01*
X617964Y110987D01*
X617854Y111038D01*
X617759Y111097D01*
X617745Y111104D01*
X617716Y111126D01*
X617672Y111169D01*
X617614Y111220D01*
X617548Y111286D01*
X617482Y111373D01*
X617410Y111468D01*
X617351Y111578D01*
X617344Y111592D01*
X617329Y111629D01*
X617300Y111694D01*
X617271Y111782D01*
X617249Y111884D01*
X617220Y112000D01*
X617205Y112132D01*
X617198Y112270D01*
Y112277D01*
Y112299D01*
Y112329D01*
X617205Y112380D01*
X617213Y112431D01*
X617220Y112496D01*
X617235Y112569D01*
X617249Y112649D01*
X617300Y112817D01*
X617329Y112904D01*
X617373Y112999D01*
X617424Y113094D01*
X617475Y113181D01*
X617541Y113269D01*
X617614Y113356D01*
X617621Y113364D01*
X617635Y113378D01*
X617657Y113400D01*
X617694Y113422D01*
X617738Y113458D01*
X617796Y113495D01*
X617869Y113539D01*
X617949Y113575D01*
X618044Y113619D01*
X618153Y113663D01*
X618270Y113699D01*
X618408Y113728D01*
X618554Y113757D01*
X618714Y113779D01*
X618897Y113794D01*
X619086Y113801D01*
X620376D01*
Y115849D01*
X621047D01*
Y110805D01*
D02*
G37*
G36*
X689118Y128297D02*
X689100D01*
X689027D01*
X688918D01*
X688772Y128315D01*
X688608Y128334D01*
X688426Y128370D01*
X688243Y128406D01*
X688043Y128479D01*
X688025D01*
X688007Y128498D01*
X687897Y128534D01*
X687733Y128607D01*
X687515Y128716D01*
X687260Y128862D01*
X686968Y129044D01*
X686677Y129245D01*
X686367Y129500D01*
X686349D01*
X686330Y129536D01*
X686221Y129627D01*
X686057Y129791D01*
X685820Y130028D01*
X685547Y130301D01*
X685219Y130648D01*
X684855Y131067D01*
X684472Y131522D01*
X684454Y131540D01*
X684399Y131613D01*
X684308Y131722D01*
X684199Y131850D01*
X684053Y132014D01*
X683889Y132214D01*
X683707Y132415D01*
X683506Y132652D01*
X683069Y133107D01*
X682632Y133563D01*
X682413Y133781D01*
X682195Y133982D01*
X681994Y134164D01*
X681794Y134310D01*
X681775D01*
X681757Y134346D01*
X681703Y134383D01*
X681630Y134419D01*
X681429Y134547D01*
X681192Y134692D01*
X680901Y134820D01*
X680591Y134947D01*
X680245Y135020D01*
X679917Y135057D01*
X679899D01*
X679881D01*
X679771Y135038D01*
X679589Y135020D01*
X679389Y134966D01*
X679134Y134893D01*
X678878Y134765D01*
X678623Y134601D01*
X678368Y134383D01*
X678332Y134346D01*
X678259Y134255D01*
X678168Y134127D01*
X678040Y133927D01*
X677931Y133672D01*
X677822Y133380D01*
X677749Y133034D01*
X677731Y132652D01*
Y132542D01*
X677749Y132469D01*
X677767Y132251D01*
X677822Y131996D01*
X677895Y131722D01*
X678022Y131413D01*
X678186Y131121D01*
X678405Y130848D01*
X678441Y130812D01*
X678532Y130739D01*
X678678Y130629D01*
X678897Y130520D01*
X679152Y130392D01*
X679480Y130283D01*
X679844Y130210D01*
X680263Y130174D01*
X680099Y128589D01*
X680081D01*
X680026Y128607D01*
X679935D01*
X679808Y128625D01*
X679662Y128662D01*
X679498Y128698D01*
X679297Y128753D01*
X679097Y128807D01*
X678660Y128953D01*
X678223Y129172D01*
X678004Y129299D01*
X677785Y129463D01*
X677585Y129627D01*
X677403Y129809D01*
X677384Y129828D01*
X677366Y129864D01*
X677312Y129919D01*
X677257Y130010D01*
X677184Y130119D01*
X677111Y130247D01*
X677020Y130392D01*
X676929Y130575D01*
X676838Y130775D01*
X676747Y130994D01*
X676674Y131230D01*
X676601Y131486D01*
X676546Y131759D01*
X676492Y132051D01*
X676473Y132360D01*
X676455Y132688D01*
Y132870D01*
X676473Y132998D01*
X676492Y133144D01*
X676510Y133326D01*
X676546Y133526D01*
X676583Y133727D01*
X676710Y134200D01*
X676893Y134674D01*
X677002Y134911D01*
X677129Y135148D01*
X677293Y135366D01*
X677476Y135567D01*
X677494Y135585D01*
X677512Y135622D01*
X677585Y135658D01*
X677658Y135731D01*
X677749Y135822D01*
X677876Y135913D01*
X678004Y136004D01*
X678168Y136114D01*
X678514Y136296D01*
X678951Y136478D01*
X679170Y136551D01*
X679425Y136587D01*
X679680Y136624D01*
X679953Y136642D01*
X679990D01*
X680081D01*
X680227Y136624D01*
X680427Y136605D01*
X680646Y136569D01*
X680901Y136496D01*
X681174Y136423D01*
X681448Y136314D01*
X681484Y136296D01*
X681575Y136259D01*
X681721Y136186D01*
X681921Y136077D01*
X682140Y135931D01*
X682413Y135749D01*
X682686Y135530D01*
X682996Y135275D01*
X683033Y135239D01*
X683142Y135148D01*
X683233Y135057D01*
X683324Y134966D01*
X683433Y134856D01*
X683579Y134711D01*
X683725Y134565D01*
X683889Y134383D01*
X684071Y134200D01*
X684272Y133982D01*
X684472Y133745D01*
X684709Y133490D01*
X684946Y133198D01*
X685201Y132907D01*
X685219Y132889D01*
X685255Y132852D01*
X685310Y132779D01*
X685383Y132688D01*
X685492Y132579D01*
X685602Y132451D01*
X685839Y132160D01*
X686112Y131850D01*
X686385Y131559D01*
X686622Y131303D01*
X686713Y131194D01*
X686804Y131103D01*
X686822Y131085D01*
X686877Y131030D01*
X686950Y130957D01*
X687059Y130866D01*
X687187Y130775D01*
X687314Y130666D01*
X687624Y130447D01*
Y136660D01*
X689118D01*
Y128297D01*
D02*
G37*
G36*
X680445Y127004D02*
X680573Y126985D01*
X680737Y126967D01*
X680919Y126931D01*
X681119Y126894D01*
X681539Y126767D01*
X681757Y126694D01*
X681994Y126584D01*
X682231Y126457D01*
X682450Y126329D01*
X682668Y126165D01*
X682887Y125983D01*
X682905Y125965D01*
X682941Y125928D01*
X682996Y125874D01*
X683051Y125783D01*
X683142Y125673D01*
X683233Y125528D01*
X683342Y125346D01*
X683433Y125145D01*
X683543Y124908D01*
X683652Y124635D01*
X683743Y124343D01*
X683816Y123997D01*
X683889Y123633D01*
X683944Y123232D01*
X683980Y122776D01*
X683998Y122303D01*
Y119078D01*
X689118D01*
Y117402D01*
X676510D01*
Y122576D01*
X676528Y122849D01*
X676546Y123159D01*
X676565Y123487D01*
X676601Y123797D01*
X676637Y124070D01*
Y124107D01*
X676674Y124234D01*
X676710Y124398D01*
X676765Y124617D01*
X676856Y124854D01*
X676965Y125109D01*
X677093Y125382D01*
X677239Y125619D01*
X677257Y125655D01*
X677312Y125728D01*
X677421Y125837D01*
X677548Y125983D01*
X677712Y126147D01*
X677931Y126311D01*
X678168Y126493D01*
X678441Y126639D01*
X678478Y126657D01*
X678569Y126694D01*
X678733Y126767D01*
X678951Y126839D01*
X679206Y126894D01*
X679498Y126967D01*
X679826Y127004D01*
X680172Y127022D01*
X680190D01*
X680245D01*
X680318D01*
X680445Y127004D01*
D02*
G37*
%LPC*%
G36*
X503955Y113291D02*
X502599D01*
X502548Y113284D01*
X502497D01*
X502439Y113276D01*
X502301Y113262D01*
X502147Y113232D01*
X501994Y113189D01*
X501856Y113130D01*
X501790Y113094D01*
X501739Y113050D01*
X501724Y113036D01*
X501695Y113006D01*
X501652Y112948D01*
X501601Y112875D01*
X501550Y112780D01*
X501506Y112664D01*
X501477Y112533D01*
X501462Y112380D01*
Y112372D01*
Y112365D01*
Y112329D01*
X501469Y112263D01*
X501484Y112190D01*
X501499Y112110D01*
X501528Y112015D01*
X501572Y111927D01*
X501622Y111840D01*
X501630Y111833D01*
X501652Y111804D01*
X501688Y111767D01*
X501732Y111716D01*
X501797Y111665D01*
X501870Y111621D01*
X501951Y111578D01*
X502045Y111541D01*
X502053D01*
X502082Y111534D01*
X502126Y111527D01*
X502184Y111512D01*
X502271Y111505D01*
X502381Y111497D01*
X502512Y111490D01*
X503955D01*
Y113291D01*
D02*
G37*
G36*
X620376Y113203D02*
X619021D01*
X618970Y113196D01*
X618919D01*
X618860Y113189D01*
X618722Y113174D01*
X618569Y113145D01*
X618415Y113101D01*
X618277Y113043D01*
X618211Y113006D01*
X618160Y112963D01*
X618146Y112948D01*
X618117Y112919D01*
X618073Y112861D01*
X618022Y112788D01*
X617971Y112693D01*
X617927Y112576D01*
X617898Y112445D01*
X617883Y112292D01*
Y112285D01*
Y112277D01*
Y112241D01*
X617891Y112175D01*
X617905Y112102D01*
X617920Y112022D01*
X617949Y111927D01*
X617993Y111840D01*
X618044Y111753D01*
X618051Y111745D01*
X618073Y111716D01*
X618109Y111680D01*
X618153Y111629D01*
X618219Y111578D01*
X618292Y111534D01*
X618372Y111490D01*
X618467Y111454D01*
X618474D01*
X618503Y111446D01*
X618547Y111439D01*
X618605Y111425D01*
X618692Y111417D01*
X618802Y111410D01*
X618933Y111403D01*
X620376D01*
Y113203D01*
D02*
G37*
G36*
X680227Y125309D02*
X680208D01*
X680190D01*
X680099D01*
X679935Y125291D01*
X679753Y125254D01*
X679553Y125218D01*
X679316Y125145D01*
X679097Y125036D01*
X678878Y124908D01*
X678860Y124890D01*
X678787Y124835D01*
X678696Y124744D01*
X678569Y124635D01*
X678441Y124471D01*
X678332Y124289D01*
X678223Y124088D01*
X678131Y123851D01*
Y123833D01*
X678113Y123760D01*
X678095Y123651D01*
X678059Y123505D01*
X678040Y123287D01*
X678022Y123013D01*
X678004Y122685D01*
Y119078D01*
X682504D01*
Y122467D01*
X682486Y122594D01*
Y122722D01*
X682468Y122868D01*
X682431Y123214D01*
X682359Y123596D01*
X682249Y123979D01*
X682103Y124325D01*
X682012Y124489D01*
X681903Y124617D01*
X681867Y124653D01*
X681794Y124726D01*
X681648Y124835D01*
X681466Y124963D01*
X681229Y125090D01*
X680937Y125200D01*
X680609Y125273D01*
X680227Y125309D01*
D02*
G37*
%LPD*%
D12*
X514783Y102748D02*
Y125386D01*
X485157D02*
X514783D01*
X485157Y102748D02*
Y125386D01*
Y102748D02*
X514783D01*
X601579D02*
X631205D01*
X601579D02*
Y125386D01*
X631205D01*
Y102748D02*
Y125386D01*
M02*
