G04*
G04 #@! TF.GenerationSoftware,Altium Limited,Altium Designer,21.4.1 (30)*
G04*
G04 Layer_Physical_Order=2*
G04 Layer_Color=16711680*
%FSLAX25Y25*%
%MOIN*%
G70*
G04*
G04 #@! TF.SameCoordinates,34362008-6013-40ED-8967-B93A8513BE85*
G04*
G04*
G04 #@! TF.FilePolarity,Positive*
G04*
G01*
G75*
%ADD36C,0.02000*%
%ADD37C,0.02500*%
%ADD40R,0.04724X0.04724*%
%ADD41R,0.07087X0.07087*%
%ADD42C,0.02500*%
%ADD43C,0.05000*%
%ADD44C,0.06000*%
G36*
X700000Y100000D02*
X474000D01*
Y164500D01*
X609582D01*
Y156918D01*
X598329D01*
X598051Y157333D01*
X598150Y157572D01*
Y158428D01*
X597993Y158808D01*
X598327Y159308D01*
X604000D01*
X604212Y159350D01*
X604428D01*
X604627Y159433D01*
X604839Y159475D01*
X605018Y159595D01*
X605218Y159677D01*
X605371Y159830D01*
X605550Y159950D01*
X605670Y160129D01*
X605823Y160282D01*
X605905Y160482D01*
X606025Y160661D01*
X606067Y160873D01*
X606150Y161072D01*
Y161288D01*
X606192Y161500D01*
X606150Y161712D01*
Y161928D01*
X606067Y162127D01*
X606025Y162339D01*
X605905Y162518D01*
X605823Y162718D01*
X605670Y162871D01*
X605550Y163050D01*
X605371Y163170D01*
X605218Y163323D01*
X605018Y163405D01*
X604839Y163525D01*
X604627Y163567D01*
X604428Y163650D01*
X604212D01*
X604000Y163692D01*
X583000D01*
X582161Y163525D01*
X581450Y163050D01*
X563092Y144692D01*
X553386D01*
X553195Y145154D01*
X553323Y145282D01*
X553536Y145796D01*
X556005Y148266D01*
X556005Y148266D01*
X557802Y150063D01*
X565059D01*
X565572Y149850D01*
X566428D01*
X567218Y150177D01*
X567823Y150782D01*
X568150Y151572D01*
Y152428D01*
X567823Y153218D01*
X567218Y153823D01*
X566428Y154150D01*
X565572D01*
X565059Y153937D01*
X557000D01*
X556259Y153790D01*
X555630Y153370D01*
X553265Y151005D01*
X553265Y151005D01*
X550796Y148536D01*
X550559Y148437D01*
X534957D01*
X529835Y153559D01*
X529622Y154072D01*
X529017Y154677D01*
X528227Y155005D01*
X527372D01*
X526582Y154677D01*
X525977Y154072D01*
X525649Y153282D01*
Y152427D01*
X525977Y151637D01*
X526582Y151032D01*
X527095Y150819D01*
X532784Y145130D01*
X533413Y144710D01*
X534154Y144563D01*
X535317D01*
X535469Y144063D01*
X535450Y144050D01*
X530013Y138613D01*
X529395Y138649D01*
X529098Y138848D01*
X528913Y138884D01*
X518149Y149649D01*
X517851Y149848D01*
X517500Y149918D01*
X498000Y149918D01*
X497649Y149848D01*
X497351Y149649D01*
X497152Y149351D01*
X497082Y149000D01*
Y142600D01*
X497152Y142249D01*
X497351Y141951D01*
X513759Y125543D01*
X514057Y125344D01*
X514408Y125275D01*
X544000D01*
X544351Y125344D01*
X544649Y125543D01*
X544848Y125841D01*
X544918Y126192D01*
Y130697D01*
X544951Y130719D01*
X545059Y130773D01*
X551312Y135582D01*
X563747D01*
X564013Y135082D01*
X563772Y134500D01*
X566000D01*
Y134000D01*
X566500D01*
Y131772D01*
X567275Y132092D01*
X567907Y132726D01*
X568160Y133335D01*
X568712Y133490D01*
X569851Y132351D01*
X570149Y132152D01*
X570500Y132082D01*
X581563D01*
Y128003D01*
X580752Y127193D01*
X580239Y126980D01*
X579634Y126375D01*
X579421Y125862D01*
X573997Y120437D01*
X561941D01*
X561428Y120650D01*
X560572D01*
X560059Y120437D01*
X535941D01*
X535428Y120650D01*
X534572D01*
X534059Y120437D01*
X514175D01*
X490625Y143987D01*
X490323Y144718D01*
X489718Y145323D01*
X488928Y145650D01*
X488072D01*
X487282Y145323D01*
X486677Y144718D01*
X486350Y143928D01*
Y143072D01*
X486677Y142282D01*
X487282Y141677D01*
X487579Y141554D01*
X492952Y136182D01*
X492817Y135609D01*
X492256Y135377D01*
X491623Y134744D01*
X491302Y133970D01*
X493530D01*
Y133470D01*
X494030D01*
Y131241D01*
X494805Y131562D01*
X495438Y132195D01*
X495670Y132756D01*
X496242Y132891D01*
X512003Y117130D01*
X512632Y116710D01*
X513373Y116563D01*
X534059D01*
X534572Y116350D01*
X535428D01*
X535941Y116563D01*
X560059D01*
X560572Y116350D01*
X561428D01*
X561941Y116563D01*
X574799D01*
X575540Y116710D01*
X576169Y117130D01*
X582161Y123122D01*
X582674Y123335D01*
X583279Y123940D01*
X583492Y124453D01*
X584870Y125831D01*
X585290Y126460D01*
X585437Y127201D01*
Y133198D01*
X585788Y133548D01*
X586323Y133376D01*
X586592Y132726D01*
X587225Y132092D01*
X588000Y131772D01*
Y134000D01*
X589000D01*
Y131772D01*
X589775Y132092D01*
X590408Y132726D01*
X590578Y133137D01*
X591068Y133234D01*
X594759Y129543D01*
X595057Y129344D01*
X595408Y129274D01*
X609410D01*
X609981Y129161D01*
X610465Y128837D01*
X618851Y120451D01*
X618851Y120451D01*
X618951Y120351D01*
X619249Y120152D01*
X619600Y120082D01*
X628808D01*
Y114408D01*
X626950Y112550D01*
X626830Y112371D01*
X626677Y112218D01*
X626595Y112018D01*
X626475Y111839D01*
X626433Y111627D01*
X626350Y111428D01*
Y111212D01*
X626308Y111000D01*
X626350Y110788D01*
Y110572D01*
X626433Y110373D01*
X626475Y110161D01*
X626595Y109982D01*
X626677Y109782D01*
X626830Y109629D01*
X626950Y109450D01*
X627129Y109330D01*
X627282Y109177D01*
X627482Y109095D01*
X627661Y108975D01*
X627873Y108933D01*
X628072Y108850D01*
X628288D01*
X628500Y108808D01*
X628712Y108850D01*
X628928D01*
X629127Y108933D01*
X629339Y108975D01*
X629518Y109095D01*
X629718Y109177D01*
X629871Y109330D01*
X630050Y109450D01*
X632550Y111950D01*
X633025Y112661D01*
X633192Y113500D01*
Y120082D01*
X645582D01*
Y113000D01*
X645652Y112649D01*
X645851Y112351D01*
X650351Y107851D01*
X650649Y107652D01*
X651000Y107582D01*
X665500D01*
X665851Y107652D01*
X666149Y107851D01*
X673149Y114851D01*
X673348Y115149D01*
X673418Y115500D01*
Y132400D01*
X673348Y132751D01*
X673149Y133049D01*
X670009Y136189D01*
X669711Y136388D01*
X669360Y136458D01*
X664358D01*
Y137232D01*
X659815D01*
Y138232D01*
X664358D01*
Y139007D01*
X670177D01*
X670749Y138893D01*
X671233Y138570D01*
X671389Y138413D01*
X671687Y138214D01*
X672038Y138144D01*
X672389Y138214D01*
X672851Y138406D01*
X672851Y138406D01*
X673149Y138604D01*
X673348Y138902D01*
X673418Y139253D01*
Y155500D01*
X673348Y155851D01*
X673149Y156149D01*
X665260Y164038D01*
X665451Y164500D01*
X700000D01*
Y100000D01*
D02*
G37*
G36*
X609652Y155649D02*
X609851Y155351D01*
X613351Y151851D01*
X613649Y151652D01*
X614000Y151582D01*
X640620D01*
X644383Y147819D01*
X644207Y135500D01*
X645582D01*
Y131666D01*
X645652Y131315D01*
X645851Y131017D01*
X646149Y130818D01*
X646500Y130748D01*
X655272D01*
Y128232D01*
X659815D01*
Y127232D01*
X655272D01*
Y124716D01*
X646500D01*
X646149Y124646D01*
X645851Y124448D01*
X645652Y124150D01*
X645582Y123799D01*
Y121000D01*
X633192D01*
Y135500D01*
Y137661D01*
X633025Y138500D01*
X632550Y139211D01*
X628711Y143050D01*
X628000Y143525D01*
X627161Y143692D01*
X626000D01*
X625788Y143650D01*
X625572D01*
X625373Y143567D01*
X625161Y143525D01*
X624982Y143405D01*
X624782Y143323D01*
X624629Y143170D01*
X624450Y143050D01*
X624330Y142871D01*
X624177Y142718D01*
X624095Y142518D01*
X623975Y142339D01*
X623933Y142127D01*
X623850Y141928D01*
Y141712D01*
X623808Y141500D01*
X623850Y141288D01*
Y141072D01*
X623933Y140873D01*
X623975Y140661D01*
X624095Y140482D01*
X624177Y140282D01*
X624330Y140129D01*
X624450Y139950D01*
X624629Y139830D01*
X624782Y139677D01*
X624982Y139595D01*
X625161Y139475D01*
X625373Y139433D01*
X625572Y139350D01*
X625788D01*
X626000Y139308D01*
X626253D01*
X628808Y136753D01*
Y135500D01*
Y121000D01*
X619600D01*
X611050Y129550D01*
X610339Y130025D01*
X609500Y130192D01*
X595408D01*
X590537Y135063D01*
X590744Y135563D01*
X606500D01*
X607241Y135710D01*
X607870Y136130D01*
X616302Y144563D01*
X633942D01*
X635366Y143139D01*
X635994Y142719D01*
X636234Y142672D01*
X636989Y142359D01*
X637844D01*
X638634Y142686D01*
X639239Y143291D01*
X639566Y144081D01*
Y144937D01*
X639239Y145727D01*
X638634Y146332D01*
X637844Y146659D01*
X637325D01*
X636115Y147870D01*
X635486Y148290D01*
X634745Y148437D01*
X615500D01*
X614759Y148290D01*
X614130Y147870D01*
X605698Y139437D01*
X587000D01*
X586259Y139290D01*
X585630Y138870D01*
X582130Y135370D01*
X581710Y134741D01*
X581563Y134000D01*
Y133000D01*
X570500D01*
X567000Y136500D01*
X551000D01*
X544500Y131500D01*
X544000D01*
Y126192D01*
X514408D01*
X498000Y142600D01*
Y149000D01*
X517500Y149000D01*
X528500Y138000D01*
X528747D01*
X528938Y137538D01*
X526303Y134904D01*
X522197D01*
X520550Y136550D01*
X520371Y136670D01*
X520218Y136823D01*
X520018Y136905D01*
X519839Y137025D01*
X519627Y137067D01*
X519428Y137150D01*
X519212D01*
X519000Y137192D01*
X518788Y137150D01*
X518572D01*
X518373Y137067D01*
X518161Y137025D01*
X517982Y136905D01*
X517782Y136823D01*
X517226Y136904D01*
X517135Y137035D01*
X517150Y137072D01*
Y137928D01*
X516823Y138718D01*
X516218Y139323D01*
X515428Y139650D01*
X514572D01*
X513782Y139323D01*
X513177Y138718D01*
X512850Y137928D01*
Y137072D01*
X513177Y136282D01*
X513650Y135809D01*
X513734Y135500D01*
X513650Y135191D01*
X513177Y134718D01*
X512850Y133928D01*
Y133072D01*
X513177Y132282D01*
X513782Y131677D01*
X514572Y131350D01*
X515428D01*
X516218Y131677D01*
X516823Y132282D01*
X517150Y133072D01*
X517650Y133250D01*
X519738Y131161D01*
X520450Y130686D01*
X521289Y130519D01*
X527211D01*
X528050Y130686D01*
X528761Y131161D01*
X531000Y133400D01*
X537908Y140308D01*
X564000D01*
X564839Y140475D01*
X564946Y140546D01*
X567500Y140500D01*
X572500Y144500D01*
X581482Y144500D01*
Y143592D01*
X581174Y142848D01*
Y141992D01*
X581501Y141202D01*
X582106Y140597D01*
X582896Y140270D01*
X583752D01*
X584542Y140597D01*
X585147Y141202D01*
X585474Y141992D01*
Y142848D01*
X585357Y143131D01*
Y144500D01*
X590000Y144500D01*
Y146000D01*
Y149260D01*
X596704Y155965D01*
X596790Y156000D01*
X609582D01*
X609652Y155649D01*
D02*
G37*
G36*
X672500Y155500D02*
Y139253D01*
X672038Y139062D01*
X671818Y139282D01*
X671107Y139758D01*
X670268Y139924D01*
X664258D01*
Y142176D01*
X655372D01*
Y133289D01*
X664258D01*
Y135540D01*
X669360D01*
X672500Y132400D01*
Y115500D01*
X665500Y108500D01*
X651000D01*
X646500Y113000D01*
Y123799D01*
X655372D01*
Y123289D01*
X664258D01*
Y132176D01*
X655372D01*
Y131666D01*
X646500D01*
Y147000D01*
X641000Y152500D01*
X614000D01*
X610500Y156000D01*
Y164500D01*
X663500D01*
X672500Y155500D01*
D02*
G37*
G36*
X515698Y138545D02*
X516045Y138198D01*
X516232Y137745D01*
Y137200D01*
X516232Y137198D01*
X516232Y137155D01*
Y137112D01*
X516217Y137035D01*
X516236Y136939D01*
X516238Y136840D01*
X516271Y136765D01*
X516287Y136684D01*
X516342Y136602D01*
X516381Y136512D01*
X516472Y136380D01*
X516484Y136369D01*
X516491Y136355D01*
X516612Y136245D01*
X516730Y136132D01*
X516745Y136126D01*
X516757Y136115D01*
X516911Y136060D01*
X517063Y136001D01*
X517079Y136001D01*
X517094Y135995D01*
X517650Y135915D01*
X517717Y135918D01*
X517782Y135905D01*
X517894Y135927D01*
X518008Y135933D01*
X518068Y135962D01*
X518133Y135975D01*
X518333Y136057D01*
X518408Y136108D01*
X518491Y136142D01*
X518519Y136161D01*
X518552Y136167D01*
X518635Y136202D01*
X518724Y136220D01*
X518755Y136232D01*
X518788D01*
X518877Y136250D01*
X518967D01*
X519000Y136257D01*
X519033Y136250D01*
X519123D01*
X519212Y136232D01*
X519245D01*
X519276Y136220D01*
X519365Y136202D01*
X519448Y136167D01*
X519481Y136161D01*
X519509Y136142D01*
X519592Y136108D01*
X519667Y136057D01*
X519698Y136045D01*
X519722Y136021D01*
X519797Y135971D01*
X519861Y135907D01*
X519965Y135837D01*
X521548Y134255D01*
X521845Y134056D01*
X522197Y133986D01*
X523289D01*
Y131437D01*
X521379D01*
X520808Y131551D01*
X520324Y131874D01*
X518299Y133899D01*
X518169Y133985D01*
X518044Y134079D01*
X518021Y134084D01*
X518001Y134098D01*
X517848Y134128D01*
X517697Y134166D01*
X517673Y134163D01*
X517650Y134168D01*
X517497Y134137D01*
X517343Y134115D01*
X516843Y133937D01*
X516822Y133925D01*
X516799Y133920D01*
X516669Y133834D01*
X516535Y133754D01*
X516521Y133735D01*
X516501Y133721D01*
X516414Y133592D01*
X516321Y133467D01*
X516316Y133443D01*
X516302Y133423D01*
X516045Y132802D01*
X515698Y132455D01*
X515245Y132268D01*
X514755D01*
X514302Y132455D01*
X513955Y132802D01*
X513768Y133255D01*
Y133745D01*
X513955Y134198D01*
X514299Y134542D01*
X514332Y134591D01*
X514377Y134630D01*
X514431Y134739D01*
X514498Y134840D01*
X514509Y134898D01*
X514536Y134951D01*
X514620Y135260D01*
X514624Y135323D01*
X514644Y135383D01*
X514636Y135500D01*
X514644Y135617D01*
X514624Y135677D01*
X514620Y135740D01*
X514536Y136049D01*
X514509Y136102D01*
X514498Y136160D01*
X514431Y136261D01*
X514377Y136370D01*
X514332Y136409D01*
X514299Y136458D01*
X513955Y136802D01*
X513768Y137255D01*
Y137745D01*
X513955Y138198D01*
X514302Y138545D01*
X514755Y138732D01*
X515245D01*
X515698Y138545D01*
D02*
G37*
%LPC*%
G36*
X534161Y160192D02*
X486000D01*
X485161Y160025D01*
X484450Y159550D01*
X476950Y152050D01*
X476475Y151339D01*
X476308Y150500D01*
Y119000D01*
X476475Y118161D01*
X476950Y117450D01*
X490950Y103450D01*
X491661Y102975D01*
X492500Y102808D01*
X594384D01*
X594912Y102279D01*
X595688Y101832D01*
X596552Y101600D01*
X597448D01*
X598312Y101832D01*
X599088Y102279D01*
X599721Y102912D01*
X600168Y103688D01*
X600400Y104552D01*
Y105448D01*
X600168Y106312D01*
X599721Y107088D01*
X599088Y107721D01*
X598312Y108168D01*
X597448Y108400D01*
X596552D01*
X595688Y108168D01*
X594912Y107721D01*
X594384Y107192D01*
X493408D01*
X492424Y108176D01*
X492616Y108638D01*
X494579D01*
Y111500D01*
X491716D01*
Y109537D01*
X491255Y109345D01*
X480692Y119908D01*
Y149592D01*
X486908Y155808D01*
X533253D01*
X535111Y153950D01*
X535822Y153475D01*
X536661Y153308D01*
X541000D01*
X541212Y153350D01*
X541428D01*
X541627Y153433D01*
X541839Y153475D01*
X542018Y153595D01*
X542218Y153677D01*
X542371Y153830D01*
X542550Y153950D01*
X542670Y154129D01*
X542823Y154282D01*
X542905Y154482D01*
X543025Y154661D01*
X543067Y154873D01*
X543150Y155072D01*
Y155288D01*
X543192Y155500D01*
X543150Y155712D01*
Y155928D01*
X543067Y156127D01*
X543025Y156339D01*
X542905Y156518D01*
X542823Y156718D01*
X542670Y156871D01*
X542550Y157050D01*
X542371Y157170D01*
X542218Y157323D01*
X542018Y157405D01*
X541839Y157525D01*
X541627Y157567D01*
X541428Y157650D01*
X541212D01*
X541000Y157692D01*
X537569D01*
X535711Y159550D01*
X535000Y160025D01*
X534161Y160192D01*
D02*
G37*
G36*
X565500Y133500D02*
X563772D01*
X564092Y132726D01*
X564725Y132092D01*
X565500Y131772D01*
Y133500D01*
D02*
G37*
G36*
X493030Y132970D02*
X491302D01*
X491623Y132195D01*
X492256Y131562D01*
X493030Y131241D01*
Y132970D01*
D02*
G37*
G36*
X624705Y115362D02*
X621842D01*
Y112500D01*
X624705D01*
Y115362D01*
D02*
G37*
G36*
X620843D02*
X617980D01*
Y112500D01*
X620843D01*
Y115362D01*
D02*
G37*
G36*
X498441Y115362D02*
X495579D01*
Y112500D01*
X498441D01*
Y115362D01*
D02*
G37*
G36*
X494579D02*
X491716D01*
Y112500D01*
X494579D01*
Y115362D01*
D02*
G37*
G36*
X508183Y115262D02*
X501659D01*
Y108738D01*
X508183D01*
Y115262D01*
D02*
G37*
G36*
X614762Y115262D02*
X608238D01*
Y108738D01*
X614762D01*
Y115262D01*
D02*
G37*
G36*
X624705Y111500D02*
X621842D01*
Y108638D01*
X624705D01*
Y111500D01*
D02*
G37*
G36*
X620843D02*
X617980D01*
Y108638D01*
X620843D01*
Y111500D01*
D02*
G37*
G36*
X498441Y111500D02*
X495579D01*
Y108638D01*
X498441D01*
Y111500D01*
D02*
G37*
G36*
X664258Y152176D02*
X655372D01*
Y143289D01*
X664258D01*
Y152176D01*
D02*
G37*
G36*
X664358Y122276D02*
X660315D01*
Y118232D01*
X664358D01*
Y122276D01*
D02*
G37*
G36*
X659315D02*
X655272D01*
Y118232D01*
X659315D01*
Y122276D01*
D02*
G37*
G36*
X664358Y117232D02*
X660315D01*
Y113189D01*
X664358D01*
Y117232D01*
D02*
G37*
G36*
X659315D02*
X655272D01*
Y113189D01*
X659315D01*
Y117232D01*
D02*
G37*
%LPD*%
D36*
X557000Y152000D02*
X566000D01*
X554635Y149635D02*
X557000Y152000D01*
X554635Y149635D02*
Y149635D01*
X551500Y146500D02*
X554635Y149635D01*
X534154Y146500D02*
X551500D01*
X581457Y125157D02*
X583500Y127201D01*
X574799Y118500D02*
X581457Y125157D01*
X527800Y152855D02*
X534154Y146500D01*
X488500Y143373D02*
Y143500D01*
Y143373D02*
X513373Y118500D01*
X535000D01*
X561000D01*
X574799D01*
X583500Y127201D02*
Y134000D01*
X634745Y146500D02*
X636736Y144509D01*
X606500Y137500D02*
X615500Y146500D01*
X634745D01*
X583500Y134000D02*
X587000Y137500D01*
X636736Y144509D02*
X637416D01*
X587000Y137500D02*
X606500D01*
X583324Y142420D02*
X583420Y142516D01*
Y145420D02*
X596000Y158000D01*
X583420Y142516D02*
Y145420D01*
D37*
X558500Y124000D02*
X565904Y131404D01*
X488500Y149000D02*
X513500Y124000D01*
X558500D01*
X534161Y158000D02*
X536661Y155500D01*
X541000D01*
X627161Y141500D02*
X631000Y137661D01*
X626000Y141500D02*
X627161D01*
X631000Y113500D02*
Y137661D01*
X628500Y111000D02*
X631000Y113500D01*
X486000Y158000D02*
X534161D01*
X521289Y132711D02*
X527211D01*
X519000Y135000D02*
X521289Y132711D01*
X485500Y149000D02*
X488500D01*
X482000Y140000D02*
Y145500D01*
X485500Y149000D01*
X482000Y140000D02*
X485157Y136843D01*
X489810D01*
X493183Y133470D01*
X670268Y137732D02*
X675000Y133000D01*
Y111000D02*
Y133000D01*
X659815Y137732D02*
X670268D01*
X594500Y128000D02*
X601000D01*
X588500Y134000D02*
X594500Y128000D01*
X584500Y111500D02*
X601000Y128000D01*
X609500D01*
X515153Y111500D02*
X584500D01*
X495079Y112000D02*
Y120079D01*
X500826Y125826D01*
X511199Y115454D01*
X493530Y133123D02*
X500826Y125826D01*
X493183Y133470D02*
X493530D01*
X511199Y115454D02*
Y115454D01*
X493530Y133123D02*
Y133470D01*
X511199Y115454D02*
X515153Y111500D01*
X478500Y119000D02*
Y150500D01*
X492500Y105000D02*
X597000D01*
X478500Y119000D02*
X492500Y105000D01*
X478500Y150500D02*
X486000Y158000D01*
X565904Y134076D02*
X565914Y134086D01*
X621343Y112000D02*
X628342Y105000D01*
X620907Y112435D02*
X621343Y112000D01*
X565904Y131404D02*
Y134076D01*
X609500Y128000D02*
X620907Y116593D01*
Y112435D02*
Y116593D01*
X669000Y105000D02*
X675000Y111000D01*
X628342Y105000D02*
X669000D01*
X583000Y161500D02*
X604000D01*
X564000Y142500D02*
X583000Y161500D01*
X537000Y142500D02*
X564000D01*
X527211Y132711D02*
X537000Y142500D01*
D40*
X495079Y112000D02*
D03*
X504921Y112000D02*
D03*
X621343D02*
D03*
X611500Y112000D02*
D03*
D41*
X659815Y147732D02*
D03*
Y137732D02*
D03*
Y127732D02*
D03*
Y117732D02*
D03*
D42*
X515000Y137500D02*
D03*
X566000Y152000D02*
D03*
X541000Y155500D02*
D03*
X626000Y141500D02*
D03*
X551500Y146500D02*
D03*
X519000Y135000D02*
D03*
X515000Y133500D02*
D03*
X626000Y127000D02*
D03*
X622000Y126000D02*
D03*
X623000Y130000D02*
D03*
X628500Y111000D02*
D03*
X595500Y142000D02*
D03*
X502000Y141500D02*
D03*
X504500Y144500D02*
D03*
X539500Y134000D02*
D03*
X527800Y152855D02*
D03*
X488500Y143500D02*
D03*
X493530Y133470D02*
D03*
X561000Y118500D02*
D03*
X535000D02*
D03*
X621000Y159000D02*
D03*
X624000Y162000D02*
D03*
X629500D02*
D03*
X651500D02*
D03*
X643000Y159000D02*
D03*
X648500D02*
D03*
X626500D02*
D03*
X637500D02*
D03*
X646000Y162000D02*
D03*
X635000D02*
D03*
X632000Y159000D02*
D03*
X640500Y162000D02*
D03*
X588500Y134000D02*
D03*
X604000Y161500D02*
D03*
X591500Y142000D02*
D03*
X596000Y158000D02*
D03*
X637416Y144509D02*
D03*
X581457Y125157D02*
D03*
X583324Y142420D02*
D03*
X571000Y137500D02*
D03*
X566000Y134000D02*
D03*
X572500Y141000D02*
D03*
X535500Y134000D02*
D03*
D43*
X597000Y105000D02*
D03*
D44*
X640330Y127732D02*
X659815D01*
M02*
