G04*
G04 #@! TF.GenerationSoftware,Altium Limited,Altium Designer,21.4.1 (30)*
G04*
G04 Layer_Color=8421504*
%FSLAX25Y25*%
%MOIN*%
G70*
G04*
G04 #@! TF.SameCoordinates,34362008-6013-40ED-8967-B93A8513BE85*
G04*
G04*
G04 #@! TF.FilePolarity,Positive*
G04*
G01*
G75*
%ADD14R,0.03937X0.06102*%
%ADD15R,0.05800X0.02200*%
%ADD16R,0.06102X0.03937*%
%ADD17R,0.05315X0.04528*%
%ADD18R,0.05118X0.03937*%
%ADD19R,0.03937X0.05118*%
%ADD20O,0.07000X0.03000*%
%ADD21O,0.03000X0.07000*%
%ADD22O,0.08000X0.02000*%
D14*
X512382Y157500D02*
D03*
X522618D02*
D03*
X622728Y152000D02*
D03*
X612492D02*
D03*
X612937Y137000D02*
D03*
X623173D02*
D03*
X647368Y151601D02*
D03*
X637132D02*
D03*
X535882Y146500D02*
D03*
X546118D02*
D03*
X580394Y108000D02*
D03*
X590630D02*
D03*
X546118Y157000D02*
D03*
X535882D02*
D03*
X522618Y147500D02*
D03*
X512382D02*
D03*
X567118Y111000D02*
D03*
X556882D02*
D03*
X588618Y119000D02*
D03*
X578382D02*
D03*
D15*
X641700Y133300D02*
D03*
Y137000D02*
D03*
Y140700D02*
D03*
X632300D02*
D03*
Y133300D02*
D03*
X499800Y137700D02*
D03*
Y134000D02*
D03*
Y130300D02*
D03*
X509200D02*
D03*
Y137700D02*
D03*
X527900D02*
D03*
Y134000D02*
D03*
Y130300D02*
D03*
X537300D02*
D03*
Y137700D02*
D03*
X584100D02*
D03*
Y134000D02*
D03*
Y130300D02*
D03*
X593500D02*
D03*
Y137700D02*
D03*
X556000D02*
D03*
Y134000D02*
D03*
Y130300D02*
D03*
X565400D02*
D03*
Y137700D02*
D03*
D16*
X526500Y120064D02*
D03*
Y109828D02*
D03*
X496000Y145882D02*
D03*
Y156118D02*
D03*
D17*
X641000Y111555D02*
D03*
Y118445D02*
D03*
D18*
X544054Y118883D02*
D03*
Y111009D02*
D03*
X604000Y155937D02*
D03*
Y148063D02*
D03*
D19*
X590787Y148000D02*
D03*
X582913D02*
D03*
X567287Y146000D02*
D03*
X559413D02*
D03*
X590787Y158500D02*
D03*
X582913D02*
D03*
X559413Y157598D02*
D03*
X567287D02*
D03*
D20*
X641121Y125113D02*
D03*
D21*
X597000Y114500D02*
D03*
D22*
X514728Y141105D02*
D03*
M02*
