G04*
G04 #@! TF.GenerationSoftware,Altium Limited,Altium Designer,21.4.1 (30)*
G04*
G04 Layer_Color=128*
%FSLAX25Y25*%
%MOIN*%
G70*
G04*
G04 #@! TF.SameCoordinates,34362008-6013-40ED-8967-B93A8513BE85*
G04*
G04*
G04 #@! TF.FilePolarity,Positive*
G04*
G01*
G75*
%ADD47C,0.00200*%
D47*
X493405Y112000D02*
X496752D01*
X495079Y110327D02*
Y113673D01*
X503248Y112000D02*
X506595D01*
X504921Y110327D02*
Y113673D01*
X619669Y112000D02*
X623016D01*
X621343Y110327D02*
Y113673D01*
X609827Y112000D02*
X613173D01*
X611500Y110327D02*
Y113673D01*
X657846Y147732D02*
X661784D01*
X659815Y145764D02*
Y149701D01*
X657846Y137732D02*
X661784D01*
X659815Y135764D02*
Y139701D01*
X657846Y127732D02*
X661784D01*
X659815Y125764D02*
Y129701D01*
X657846Y117732D02*
X661784D01*
X659815Y115764D02*
Y119701D01*
X514400Y137500D02*
X515600D01*
X515000Y136900D02*
Y138100D01*
X565400Y152000D02*
X566600D01*
X566000Y151400D02*
Y152600D01*
X540400Y155500D02*
X541600D01*
X541000Y154900D02*
Y156100D01*
X625400Y141500D02*
X626600D01*
X626000Y140900D02*
Y142100D01*
X550900Y146500D02*
X552100D01*
X551500Y145900D02*
Y147100D01*
X595600Y105000D02*
X598400D01*
X597000Y103600D02*
Y106400D01*
X518400Y135000D02*
X519600D01*
X519000Y134400D02*
Y135600D01*
X514400Y133500D02*
X515600D01*
X515000Y132900D02*
Y134100D01*
X625400Y127000D02*
X626600D01*
X626000Y126400D02*
Y127600D01*
X621400Y126000D02*
X622600D01*
X622000Y125400D02*
Y126600D01*
X622400Y130000D02*
X623600D01*
X623000Y129400D02*
Y130600D01*
X627900Y111000D02*
X629100D01*
X628500Y110400D02*
Y111600D01*
X594900Y142000D02*
X596100D01*
X595500Y141400D02*
Y142600D01*
X501400Y141500D02*
X502600D01*
X502000Y140900D02*
Y142100D01*
X503900Y144500D02*
X505100D01*
X504500Y143900D02*
Y145100D01*
X538900Y134000D02*
X540100D01*
X539500Y133400D02*
Y134600D01*
X527200Y152855D02*
X528400D01*
X527800Y152255D02*
Y153455D01*
X487900Y143500D02*
X489100D01*
X488500Y142900D02*
Y144100D01*
X492930Y133470D02*
X494130D01*
X493530Y132870D02*
Y134070D01*
X560400Y118500D02*
X561600D01*
X561000Y117900D02*
Y119100D01*
X534400Y118500D02*
X535600D01*
X535000Y117900D02*
Y119100D01*
X620400Y159000D02*
X621600D01*
X621000Y158400D02*
Y159600D01*
X623400Y162000D02*
X624600D01*
X624000Y161400D02*
Y162600D01*
X628900Y162000D02*
X630100D01*
X629500Y161400D02*
Y162600D01*
X650900Y162000D02*
X652100D01*
X651500Y161400D02*
Y162600D01*
X642400Y159000D02*
X643600D01*
X643000Y158400D02*
Y159600D01*
X647900Y159000D02*
X649100D01*
X648500Y158400D02*
Y159600D01*
X625900Y159000D02*
X627100D01*
X626500Y158400D02*
Y159600D01*
X636900Y159000D02*
X638100D01*
X637500Y158400D02*
Y159600D01*
X645400Y162000D02*
X646600D01*
X646000Y161400D02*
Y162600D01*
X634400Y162000D02*
X635600D01*
X635000Y161400D02*
Y162600D01*
X631400Y159000D02*
X632600D01*
X632000Y158400D02*
Y159600D01*
X639900Y162000D02*
X641100D01*
X640500Y161400D02*
Y162600D01*
X587900Y134000D02*
X589100D01*
X588500Y133400D02*
Y134600D01*
X603400Y161500D02*
X604600D01*
X604000Y160900D02*
Y162100D01*
X590900Y142000D02*
X592100D01*
X591500Y141400D02*
Y142600D01*
X595400Y158000D02*
X596600D01*
X596000Y157400D02*
Y158600D01*
X636816Y144509D02*
X638016D01*
X637416Y143909D02*
Y145109D01*
X580857Y125157D02*
X582057D01*
X581457Y124557D02*
Y125758D01*
X582724Y142420D02*
X583924D01*
X583324Y141820D02*
Y143020D01*
X570400Y137500D02*
X571600D01*
X571000Y136900D02*
Y138100D01*
X565400Y134000D02*
X566600D01*
X566000Y133400D02*
Y134600D01*
X571900Y141000D02*
X573100D01*
X572500Y140400D02*
Y141600D01*
X534900Y134000D02*
X536100D01*
X535500Y133400D02*
Y134600D01*
M02*
