M48
;Layer_Color=9474304
;FILE_FORMAT=2:5
INCH,LZ
;TYPE=PLATED
T1F00S00C0.01200
T2F00S00C0.02800
T3F00S00C0.03347
T4F00S00C0.03937
%
T01
X049353Y013347
X04885Y01435
X0502Y01415
X05045Y01445
X0515Y01375
Y01335
X0519Y0135
X05355Y0134
X05395
X0535Y01185
X0561
X0566Y0134
X0571Y01375
X05725Y0141
X0583324Y014242
X05915Y0142
X05955
X05885Y0134
X0581457Y0125157
X0622Y0126
X0623Y013
X0566Y0152
X05515Y01465
X0541Y01555
X05278Y0152855
X0626Y01415
X0637416Y0144509
X0626Y0127
X06285Y0111
X06265Y0159
X0632
X06295Y0162
X0635
X06375Y0159
X0643
X06485
X0646Y0162
X06515
X06405
X0624
X0621Y0159
X0604Y01615
X0596Y0158
T02
X0597Y0105
T03
X0495079Y0112
X0504921Y0112
X06115Y0112
X0621343Y0112
T04
X0659815Y0117732
Y0127732
Y0137732
Y0147732
M30
